<?xml version="1.0" encoding="utf-8"?>
	<svg version="1.1" id="Layer_1" xmlns="http://www.w3.org/2000/svg" xmlns:xlink="http://www.w3.org/1999/xlink" x="0px" y="0px" width="122.883px" height="122.882px" viewBox="0 0 122.883 122.882" enable-background="new 0 0 122.883 122.882" xml:space="preserve">
		<g>
			<path d="M0,61.441L0,61.441l0.018-0.001c0-16.975,6.872-32.334,17.98-43.443C29.106,6.89,44.465,0.018,61.44,0.018V0h0.001h0.001 v0.018c16.974,0,32.335,6.872,43.443,17.98s17.98,26.467,17.98,43.441h0.018v0.002l0,0h-0.018c0,16.976-6.873,32.335-17.98,43.443 c-11.109,11.107-26.467,17.979-43.442,17.979v0.018h-0.002l0,0v-0.018c-16.975,0-32.335-6.872-43.443-17.98 C6.89,93.775,0.018,78.417,0.018,61.442L0,61.441L0,61.441L0,61.441z M42.48,51.182c-1.962-1.909-5.101-1.865-7.009,0.097 s-1.865,5.101,0.097,7.009l22.521,21.839l3.456-3.553l-3.46,3.568c1.971,1.911,5.117,1.862,7.029-0.108 c0.055-0.058,0.109-0.115,0.16-0.175L87.33,58.288c1.963-1.908,2.006-5.046,0.098-7.009s-5.047-2.006-7.01-0.097L61.53,69.655 L42.48,51.182L42.48,51.182z"/>
		</g>
	</svg>
