<?xml version="1.0" encoding="utf-8"?>
<!-- Generator: Adobe Illustrator 16.0.0, SVG Export Plug-In . SVG Version: 6.00 Build 0)  -->
<!DOCTYPE svg PUBLIC "-//W3C//DTD SVG 1.1//EN" "http://www.w3.org/Graphics/SVG/1.1/DTD/svg11.dtd">
<svg version="1.1" id="Layer_1" xmlns="http://www.w3.org/2000/svg" xmlns:xlink="http://www.w3.org/1999/xlink" x="0px" y="0px"
	 width="118.517px" height="122.88px" viewBox="0 0 118.517 122.88" enable-background="new 0 0 118.517 122.88"
	 xml:space="preserve">
<g>
	<path d="M34.556,2.46L0,31.399l11.769,14.645l19.758-16.992l-0.023,93.829h18.756l0.025-93.841l19.784,16.992l11.769-14.645
		L47.269,2.46C43.208-0.818,38.62-0.821,34.556,2.46L34.556,2.46z M93.811,83.528c5.089,0,9.207-4.213,9.207-9.416
		s-4.118-9.416-9.207-9.416H72.529v18.832H93.811L93.811,83.528L93.811,83.528z M109.31,118.127c5.088,0,9.207-4.213,9.207-9.416
		s-4.119-9.415-9.207-9.415h-36.78v18.831H109.31L109.31,118.127L109.31,118.127z"/>
</g>
</svg>
