<?xml version="1.0" encoding="utf-8"?><svg version="1.1" id="Layer_1" xmlns="http://www.w3.org/2000/svg" xmlns:xlink="http://www.w3.org/1999/xlink" x="0px" y="0px" viewBox="0 0 118.394 122.88" enable-background="new 0 0 118.394 122.88" xml:space="preserve"><g><path d="M34.556,120.42L0,91.481l11.769-14.645l19.758,16.992L31.503,0h18.756l0.025,93.842L70.068,76.85l11.769,14.645 L47.269,120.42C43.208,123.698,38.62,123.701,34.556,120.42L34.556,120.42z M93.811,39.351c5.089,0,9.208,4.213,9.208,9.417 c0,5.203-4.119,9.416-9.208,9.416H72.53V39.351H93.811L93.811,39.351L93.811,39.351z M109.31,4.752 c12.112,0,12.112,18.832,0,18.832H72.53V4.752H109.31L109.31,4.752L109.31,4.752z"/></g></svg>