<?xml version="1.0" encoding="utf-8"?><svg version="1.1" id="Layer_1" xmlns="http://www.w3.org/2000/svg" xmlns:xlink="http://www.w3.org/1999/xlink" x="0px" y="0px" viewBox="0 0 122.88 95.21" style="enable-background:new 0 0 122.88 95.21" xml:space="preserve"><g><path d="M61.44,31.38c7.44,0,14.18,3.02,19.06,7.89c4.88,4.88,7.89,11.61,7.89,19.06c0,7.44-3.02,14.18-7.89,19.06 c-4.88,4.88-11.61,7.89-19.06,7.89c-7.44,0-14.18-3.02-19.06-7.89c-4.88-4.88-7.89-11.61-7.89-19.06c0-7.44,3.02-14.18,7.89-19.06 C47.26,34.4,54,31.38,61.44,31.38L61.44,31.38z M47.6,47.44h27.66c0.4,0,0.72,0.32,0.72,0.72c0,0.22-0.09,0.42-0.25,0.55 l-10.8,11.93v7.85c0,0.28-0.16,0.53-0.41,0.64l-5.66,3.27c-0.34,0.2-0.77,0.08-0.97-0.26c-0.07-0.11-0.09-0.24-0.09-0.36V60.63 L47.1,48.66c-0.27-0.28-0.27-0.73,0-1.01C47.24,47.5,47.42,47.44,47.6,47.44L47.6,47.44z M2.48,20.74h4.5v-9.86 c0-1.37,1.11-2.48,2.48-2.48h4.41V2.48c0-1.37,1.11-2.48,2.48-2.48h40.26c1.37,0,2.48,1.11,2.48,2.48V8.4h54.3 c1.37,0,2.48,1.11,2.48,2.48v9.86h4.53c1.37,0,2.48,1.11,2.48,2.48c0,0.18-0.02,0.36-0.06,0.53l-8.68,63.81 c-0.28,2.08-1.19,4.01-2.59,5.41c-1.38,1.38-3.21,2.24-5.36,2.24H14.7c-2.16,0-4.03-0.87-5.43-2.26c-1.41-1.41-2.31-3.35-2.54-5.46 l-6.72-64c-0.14-1.36,0.85-2.58,2.21-2.72C2.31,20.75,2.39,20.75,2.48,20.74L2.48,20.74L2.48,20.74L2.48,20.74z M9.46,25.71H5.23 l6.44,61.27c0.1,0.98,0.5,1.85,1.1,2.46c0.5,0.5,1.17,0.81,1.93,0.81h91.5c0.75,0,1.38-0.3,1.87-0.79 c0.62-0.62,1.03-1.53,1.17-2.55l8.32-61.19L9.46,25.71L9.46,25.71L9.46,25.71z M11.94,13.37v7.36l98.97-1.05v-6.31h-54.3 c-1.37,0-2.48-1.11-2.48-2.48V4.97h-35.3v5.92c0,1.37-1.11,2.48-2.48,2.48L11.94,13.37L11.94,13.37L11.94,13.37z M77.15,42.61 c-4.02-4.02-9.58-6.51-15.71-6.51c-6.14,0-11.69,2.49-15.71,6.51c-4.02,4.02-6.51,9.58-6.51,15.72c0,6.14,2.49,11.69,6.51,15.71 c4.02,4.02,9.58,6.51,15.71,6.51c6.14,0,11.69-2.49,15.71-6.51c4.02-4.02,6.51-9.58,6.51-15.71 C83.66,52.19,81.18,46.63,77.15,42.61L77.15,42.61z"/></g></svg>